<?xml version="1.0" standalone="no"?>
<!DOCTYPE svg PUBLIC "-//W3C//DTD SVG 20010904//EN"
 "http://www.w3.org/TR/2001/REC-SVG-20010904/DTD/svg10.dtd">
<svg version="1.0" xmlns="http://www.w3.org/2000/svg"
 width="1198.000000pt" height="1198.000000pt" viewBox="0 0 1198.000000 1198.000000"
 preserveAspectRatio="xMidYMid meet">
<metadata>
Created by potrace 1.14, written by Peter Selinger 2001-2017
</metadata>
<g transform="translate(0.000000,1198.000000) scale(0.100000,-0.100000)"
fill="#000000" stroke="none">
<path d="M864 7528 c-5 -8 -10 -1408 -5 -1449 1 -3 27 -23 59 -44 92 -61 130
-93 247 -210 124 -123 229 -258 323 -415 35 -57 68 -108 74 -111 7 -4 20 -3
30 2 17 9 18 44 18 662 0 738 7 665 -86 850 -93 185 -212 346 -384 517 -116
116 -231 210 -255 210 -8 0 -17 -5 -21 -12z"/>
<path d="M2380 7498 c-258 -196 -513 -524 -626 -803 l-28 -70 0 -654 c-1 -664
0 -681 33 -681 13 0 34 30 81 110 51 89 142 218 219 309 104 125 201 212 382
344 l36 26 0 718 c0 458 -3 723 -10 731 -15 19 -28 15 -87 -30z"/>
<path d="M3869 7388 c-1 -53 -1 -2861 0 -2885 1 -16 6 -20 21 -16 20 5 20 14
20 1469 0 1457 0 1464 -20 1464 -16 0 -20 -7 -21 -32z"/>
<path d="M487 7273 c-4 -3 -7 -347 -7 -764 l0 -757 73 -28 c211 -79 446 -212
634 -357 95 -74 106 -79 128 -63 18 13 17 16 -15 72 -99 176 -309 382 -541
530 l-46 29 -1 629 c0 345 -4 632 -9 636 -14 13 -176 80 -193 80 -9 0 -20 -3
-23 -7z"/>
<path d="M2725 7244 c-44 -20 -85 -40 -91 -45 -9 -7 -12 -178 -12 -634 l1
-625 -109 -76 c-209 -147 -337 -271 -440 -425 -67 -101 -74 -119 -49 -139 16
-13 51 6 120 65 45 40 240 167 334 219 89 49 224 111 306 141 28 10 55 22 60
26 7 5 10 266 9 756 -1 411 -2 754 -3 761 -2 21 -42 13 -126 -24z"/>
<path d="M5510 7192 c-6 -2 -10 -72 -10 -183 l0 -179 169 0 169 0 -1 180 -1
180 -65 1 c-36 0 -108 1 -158 2 -51 1 -97 1 -103 -1z"/>
<path d="M9600 7010 l0 -180 169 0 169 0 0 180 -1 180 -168 0 -169 0 0 -180z"/>
<path d="M4579 7163 c-4 -94 0 -1735 5 -1740 3 -3 186 -6 406 -7 l400 -1 0
165 0 165 -225 0 -225 0 0 717 0 718 -180 0 c-164 0 -180 -2 -181 -17z"/>
<path d="M6040 6300 l0 -880 90 0 90 0 41 82 41 82 23 -44 c61 -119 200 -170
338 -124 122 41 218 206 244 422 10 83 10 396 1 477 -30 252 -144 407 -310
422 -93 9 -150 -20 -211 -107 -16 -23 -17 -12 -17 263 l0 287 -165 0 -165 0 0
-880z m472 163 c41 -48 53 -137 53 -403 -1 -236 -7 -304 -34 -365 -29 -65 -95
-76 -135 -22 -20 27 -21 42 -24 330 -4 343 1 415 29 452 25 31 87 35 111 8z"/>
<path d="M165 7008 c-78 -17 -135 -67 -155 -136 -8 -25 -10 -317 -8 -939 l3
-901 30 -44 c19 -27 48 -52 78 -67 l49 -24 571 -2 c315 -1 577 -2 584 -3 20
-3 53 -44 53 -67 0 -12 -16 -77 -35 -146 -47 -167 -48 -168 -201 -167 -100 1
-119 -2 -142 -19 -48 -35 -38 -113 17 -131 14 -4 314 -8 667 -7 595 0 642 1
667 18 15 10 28 24 28 32 1 8 2 21 3 28 4 21 -28 68 -51 73 -11 3 -74 6 -138
7 -143 2 -140 0 -184 161 -39 141 -41 170 -12 199 l22 22 582 1 c532 1 586 2
619 18 47 23 81 57 104 104 17 35 18 92 19 922 1 685 -2 895 -11 929 -15 51
-64 106 -114 127 -29 13 -135 20 -211 15 -12 -1 -15 -16 -14 -83 l0 -83 67 -5
c51 -4 73 -10 89 -27 l22 -21 -1 -819 c0 -450 -1 -826 -1 -836 -1 -10 -12 -29
-26 -42 l-24 -25 -1444 0 -1444 0 -27 26 -26 27 0 832 0 832 25 27 c21 23 32
26 90 26 l65 0 0 85 0 85 -37 1 c-21 0 -55 1 -75 2 -21 1 -54 -1 -73 -5z"/>
<path d="M7585 6743 c-72 -18 -138 -105 -191 -250 -23 -65 -24 -66 -23 -28 0
22 1 88 0 148 l-1 107 -150 0 -150 0 0 -650 0 -650 169 0 169 0 1 343 c0 188
5 365 10 394 29 150 105 222 240 228 36 2 68 4 71 4 7 1 3 328 -4 346 -4 11
-20 15 -63 14 -32 -1 -67 -4 -78 -6z"/>
<path d="M8124 6740 c-104 -22 -201 -95 -247 -187 -30 -58 -57 -147 -57 -185
0 -25 4 -28 35 -29 19 -1 38 -2 43 -3 4 -1 39 -6 77 -10 39 -4 85 -10 103 -12
35 -6 38 -3 47 59 13 93 54 139 113 126 18 -4 35 -9 38 -12 17 -16 31 -89 33
-160 1 -44 4 -84 7 -89 3 -4 -7 -8 -23 -9 -91 -1 -214 -28 -282 -62 -25 -12
-71 -47 -102 -77 -96 -94 -137 -216 -126 -378 10 -154 61 -248 163 -298 48
-23 63 -26 123 -22 105 8 167 44 248 146 l18 23 1 -34 c1 -19 4 -51 8 -71 l7
-36 153 0 154 0 -8 36 c-5 21 -9 236 -10 479 -1 442 -3 505 -22 580 -22 91
-104 172 -213 210 -57 20 -217 29 -281 15z m189 -822 c-4 -173 -15 -226 -54
-261 -22 -21 -39 -27 -61 -25 -48 5 -70 43 -76 132 -8 133 29 219 112 257 82
37 83 36 79 -103z"/>
<path d="M9320 6731 c-71 -39 -115 -101 -162 -231 l-27 -75 0 120 c0 66 0 132
0 148 l-1 27 -150 0 -150 0 0 -650 0 -650 169 0 170 0 0 343 c0 188 5 365 10
394 29 152 104 222 242 226 53 2 69 5 70 17 0 17 0 292 0 326 -1 19 -7 21 -68
22 -50 1 -77 -4 -103 -17z"/>
<path d="M10430 6735 c-157 -44 -263 -178 -311 -396 -23 -101 -32 -353 -16
-475 29 -238 129 -391 292 -449 59 -21 223 -29 281 -14 137 37 235 132 284
273 28 82 37 166 19 167 -8 0 -25 2 -39 4 -14 2 -65 6 -115 10 -49 3 -92 8
-96 11 -10 6 -23 -15 -26 -41 -5 -31 -32 -119 -40 -131 -33 -46 -113 -58 -157
-23 -50 39 -64 86 -72 237 l-5 102 287 0 287 0 -6 148 c-6 143 -17 226 -39
287 -46 129 -123 223 -222 269 -75 36 -219 45 -306 21z m182 -236 c27 -14 56
-84 63 -150 4 -30 8 -66 9 -80 2 -15 1 -30 -3 -36 -3 -5 -62 -9 -130 -8 l-123
0 6 65 c10 112 44 196 86 213 25 9 70 8 92 -4z"/>
<path d="M11392 6735 c-215 -61 -326 -249 -287 -490 9 -56 62 -141 115 -184
25 -20 50 -41 57 -47 7 -7 65 -38 130 -70 65 -31 135 -68 155 -82 71 -46 86
-132 32 -183 -22 -20 -35 -24 -94 -24 -54 0 -74 4 -96 21 -35 26 -68 87 -73
136 -1 7 -24 5 -86 -6 -16 -3 -61 -10 -100 -16 -38 -6 -72 -13 -74 -16 -8 -8
28 -135 50 -179 70 -133 206 -205 386 -205 261 1 428 152 438 396 6 135 -29
229 -118 316 -39 38 -85 67 -196 120 -171 83 -207 108 -222 157 -22 74 27 123
116 116 58 -5 96 -37 115 -98 8 -23 14 -43 15 -44 1 -3 236 55 241 60 6 5 -29
105 -55 155 -33 66 -86 117 -149 147 -72 34 -216 44 -300 20z"/>
<path d="M5500 6070 l0 -650 169 0 168 0 0 650 0 650 -168 0 -169 0 0 -650z"/>
<path d="M9600 6070 l0 -650 169 0 168 0 0 650 0 650 -168 0 -169 0 0 -650z"/>
<path d="M9934 5286 c-69 -31 -107 -121 -106 -258 0 -147 24 -217 89 -255 101
-59 219 7 226 128 l2 43 -42 4 c-24 2 -43 0 -44 -5 -7 -73 -34 -108 -77 -96
-31 8 -44 66 -41 187 4 129 7 144 35 162 43 29 74 -8 83 -98 1 -12 76 -9 88 3
14 14 -6 102 -31 141 -19 29 -81 58 -124 58 -15 -1 -41 -7 -58 -14z"/>
<path d="M4580 5025 l0 -265 120 0 c100 0 120 3 121 15 0 8 1 30 2 47 l1 33
-67 -1 -67 0 -1 30 c0 17 -1 115 -1 219 l1 187 -55 0 -54 0 0 -265z"/>
<path d="M6730 5025 l0 -265 53 0 52 0 0 105 c-1 94 1 105 17 105 16 0 27 -25
43 -100 2 -8 10 -35 17 -60 l14 -45 57 -3 c31 -2 57 -1 57 0 0 2 -18 54 -39
115 l-40 111 21 19 c75 66 58 233 -27 269 -22 9 -70 14 -130 14 l-95 0 0 -265z
m162 173 c27 -22 36 -49 27 -86 -9 -43 -18 -52 -55 -55 l-29 -2 -1 70 c0 39 2
73 4 78 5 11 37 8 54 -5z"/>
<path d="M8790 5025 l0 -265 50 0 50 0 0 149 c0 155 6 179 44 165 14 -5 16
-27 16 -160 l0 -154 50 0 50 0 0 173 c0 195 -6 213 -72 223 -30 5 -41 2 -62
-19 l-26 -26 0 89 0 90 -50 0 -50 0 0 -265z"/>
<path d="M11798 5272 c-26 -3 -28 -6 -29 -55 -1 -29 -1 -55 0 -59 0 -5 -10 -8
-24 -8 -14 0 -25 -3 -26 -7 -6 -57 -3 -73 13 -73 9 0 19 -4 22 -8 3 -5 6 -62
7 -127 1 -66 6 -129 11 -141 13 -28 49 -44 98 -44 44 0 54 11 55 58 1 28 -2
33 -17 29 -38 -10 -48 18 -48 129 l0 104 33 0 c33 0 35 5 28 73 -1 4 -14 7
-31 7 l-30 0 0 63 c0 68 2 66 -62 59z"/>
<path d="M6197 5186 c1 -22 2 -44 2 -48 1 -4 43 -30 94 -59 50 -28 93 -53 95
-54 2 -2 -74 -47 -185 -109 -6 -3 -9 -64 -4 -77 5 -14 29 -4 144 63 l137 80 0
42 0 41 -103 60 c-56 33 -120 70 -142 81 l-40 22 2 -42z"/>
<path d="M9296 5185 c1 -52 3 -55 51 -80 21 -11 40 -22 43 -25 3 -3 26 -16 52
-29 l46 -25 -23 -18 c-13 -10 -26 -18 -29 -18 -8 0 -131 -73 -136 -81 -3 -5
-5 -21 -4 -36 1 -15 3 -34 3 -41 1 -10 10 -8 36 8 19 12 47 28 62 36 15 8 46
26 68 40 22 13 57 33 78 44 34 19 37 24 37 63 l0 42 -103 60 c-56 32 -120 69
-142 81 l-40 22 1 -43z"/>
<path d="M4924 5141 c-47 -29 -68 -82 -71 -182 -2 -75 1 -94 22 -136 35 -69
95 -90 171 -58 26 11 40 26 55 61 23 52 19 61 -31 66 -28 2 -35 -1 -38 -17 -6
-28 -21 -45 -43 -45 -23 0 -39 29 -39 73 l0 35 73 0 c39 0 78 0 85 1 19 1 11
105 -12 153 -30 63 -111 86 -172 49z m94 -85 c19 -39 9 -56 -34 -56 -35 0 -36
0 -31 36 8 59 41 69 65 20z"/>
<path d="M5214 5144 c-29 -14 -75 -87 -62 -99 3 -3 22 -8 44 -11 37 -5 40 -3
51 26 14 38 44 38 53 0 9 -37 1 -57 -23 -58 -41 0 -96 -30 -117 -64 -30 -49
-27 -118 7 -158 23 -28 31 -31 67 -27 25 3 47 13 58 27 18 22 19 22 22 -2 0
-8 19 -14 44 -16 l43 -3 -2 163 c-1 186 -9 211 -69 228 -49 14 -80 12 -116 -6z
m90 -251 c-5 -56 -25 -83 -48 -63 -26 21 -20 75 10 99 15 11 30 19 34 16 5 -3
6 -26 4 -52z"/>
<path d="M5588 5135 c-13 -14 -26 -36 -30 -48 -4 -16 -6 -9 -7 21 l-1 42 -45
0 -45 0 0 -195 0 -195 50 0 50 0 0 113 c0 129 10 157 60 173 34 11 35 14 35
60 0 43 -3 49 -22 52 -14 2 -30 -6 -45 -23z"/>
<path d="M5809 5147 c-8 -7 -21 -21 -27 -32 -11 -19 -11 -18 -12 8 0 25 -3 27
-45 27 l-45 0 0 -195 0 -195 50 0 50 0 0 149 c0 155 6 179 44 165 14 -5 16
-27 16 -160 l0 -154 51 0 50 0 -3 181 c-3 176 -4 181 -27 200 -26 21 -78 25
-102 6z"/>
<path d="M7148 5145 c-50 -28 -71 -77 -74 -178 -4 -114 18 -176 71 -201 85
-41 178 5 187 90 3 27 1 29 -39 32 -36 3 -43 0 -43 -15 0 -24 -19 -43 -42 -43
-21 0 -38 36 -38 79 l0 28 83 -1 82 0 -1 65 c-2 51 -7 75 -25 102 -36 54 -104
72 -161 42z m80 -68 c6 -7 12 -26 14 -42 3 -28 1 -30 -34 -33 -34 -3 -38 -1
-38 20 0 25 25 68 39 68 5 0 13 -6 19 -13z"/>
<path d="M7433 5144 c-34 -17 -63 -66 -63 -108 0 -48 23 -77 93 -117 55 -33
68 -45 65 -62 -2 -17 -11 -23 -35 -25 -27 -3 -35 1 -45 23 -10 22 -16 25 -42
19 -42 -9 -44 -10 -39 -38 13 -66 110 -104 185 -73 47 20 70 55 70 110 1 58
-21 88 -93 127 -65 34 -80 54 -58 75 17 16 59 3 59 -19 0 -12 8 -14 33 -9 47
8 52 18 30 55 -33 57 -96 73 -160 42z"/>
<path d="M7752 5153 c-26 -5 -64 -53 -80 -101 -6 -18 -10 -70 -9 -115 5 -138
61 -202 162 -183 53 10 83 43 99 109 6 26 5 27 -39 27 -37 0 -45 -3 -45 -18 0
-39 -52 -58 -68 -24 -5 9 -9 33 -11 53 l-2 37 86 -2 87 -1 -4 60 c-9 127 -67
179 -176 158z m72 -80 c3 -10 7 -30 10 -45 4 -27 3 -28 -36 -28 l-41 0 6 37
c8 50 49 74 61 36z"/>
<path d="M8014 5145 c-31 -16 -47 -38 -59 -82 -5 -18 -1 -22 36 -28 30 -5 44
-3 50 6 4 7 6 16 3 21 -7 10 37 31 46 21 4 -4 10 -23 13 -40 6 -30 4 -33 -21
-39 -100 -21 -135 -55 -138 -136 -4 -73 24 -117 73 -118 25 0 73 20 73 31 0 4
6 9 14 12 8 3 13 -1 12 -11 -1 -13 9 -18 42 -20 l42 -3 0 154 c0 163 -8 204
-41 225 -34 21 -110 25 -145 7z m89 -252 c-5 -58 -24 -83 -47 -63 -38 31 3
134 45 113 4 -1 5 -24 2 -50z"/>
<path d="M8388 5135 c-13 -14 -26 -36 -30 -48 -4 -16 -6 -9 -7 21 l-1 42 -45
0 -45 0 0 -195 0 -195 49 0 49 0 4 124 c2 105 6 127 22 145 11 12 29 21 42 21
25 0 33 18 31 70 -3 46 -36 53 -69 15z"/>
<path d="M8565 5150 c-76 -31 -111 -168 -75 -299 21 -81 94 -118 174 -90 42
15 72 58 78 114 3 29 1 30 -38 33 -41 3 -42 2 -51 -35 -11 -49 -47 -59 -63
-18 -11 29 -12 166 -1 204 13 47 59 31 63 -23 2 -24 6 -26 50 -26 l48 0 -7 33
c-10 53 -30 83 -67 101 -37 17 -79 20 -111 6z"/>
<path d="M10270 5153 c-76 -30 -113 -151 -85 -279 17 -74 46 -111 95 -119 80
-13 141 22 160 94 42 160 -8 298 -111 307 -24 2 -51 1 -59 -3z m70 -89 c13
-34 13 -200 0 -225 -13 -24 -36 -25 -49 -1 -5 10 -9 66 -9 125 -1 90 2 108 16
117 26 14 32 12 42 -16z"/>
<path d="M10628 5143 c-15 -9 -29 -24 -32 -33 -2 -8 -4 -3 -5 13 -1 25 -4 27
-46 27 l-45 0 0 -195 0 -195 50 0 50 0 0 148 c0 147 4 169 28 166 6 -1 17 -2
22 -3 6 -1 10 -60 10 -156 l0 -155 51 0 50 0 -3 180 c-3 199 -6 207 -69 216
-22 3 -43 -1 -61 -13z"/>
<path d="M10964 5149 c-12 -6 -27 -21 -32 -33 -10 -20 -11 -20 -11 7 -1 25 -4
27 -46 27 l-45 0 0 -195 0 -195 50 0 50 0 0 149 c0 152 4 168 40 167 13 -1 15
-27 18 -158 l3 -158 49 0 50 0 0 173 c0 148 -3 175 -18 195 -20 26 -76 37
-108 21z"/>
<path d="M11214 5141 c-52 -32 -69 -81 -69 -198 1 -99 2 -103 31 -140 40 -49
88 -63 147 -42 34 11 46 23 65 61 13 26 21 52 17 58 -10 16 -85 13 -85 -4 0
-8 -8 -23 -17 -35 -16 -19 -20 -20 -37 -8 -11 8 -20 31 -23 59 l-5 45 73 1
c41 0 80 1 88 1 19 1 10 104 -13 153 -30 63 -111 86 -172 49z m83 -59 c6 -4
13 -23 15 -42 3 -34 2 -35 -36 -38 l-39 -3 6 37 c8 45 28 63 54 46z"/>
<path d="M11525 5150 c-76 -31 -111 -168 -76 -297 10 -38 50 -92 69 -94 4 0
18 -3 32 -5 69 -13 130 26 148 95 12 49 6 59 -38 63 -33 3 -36 1 -45 -37 -14
-51 -49 -61 -65 -19 -11 27 -12 169 -3 205 12 45 61 26 65 -24 2 -25 5 -27 51
-27 41 0 48 3 43 18 -2 9 -7 32 -11 50 -12 61 -104 100 -170 72z"/>
</g>
</svg>
